<svg id="Layer_1" data-name="Layer 1" xmlns="http://www.w3.org/2000/svg" xmlns:xlink="http://www.w3.org/1999/xlink" viewBox="0 0 230 60"><defs><style>.cls-1{fill:none;}.cls-2{clip-path:url(#clip-path);}.cls-3{fill:#6370e8;}.cls-4{fill:#6571e9;}.cls-5{fill:#7074ef;}.cls-6{fill:#7174ef;}.cls-7{fill:#6270e7;}.cls-8{fill:#6671e9;}.cls-9{fill:#6771ea;}.cls-10{fill:#6871ea;}.cls-11{fill:#6972eb;}.cls-12{fill:#6a72eb;}.cls-13{fill:#6b72ec;}.cls-14{fill:#6c72ed;}.cls-15{fill:#6d73ed;}.cls-16{fill:#6e73ee;}.cls-17{fill:#6f73ee;}.cls-18{fill:#7274f0;}.cls-19{fill:#7a76f5;}.cls-20{fill:#7b77f5;}.cls-21{fill:#7374f1;}.cls-22{fill:#7475f1;}.cls-23{fill:#7575f2;}.cls-24{fill:#7675f2;}.cls-25{fill:#7776f3;}.cls-26{fill:#7876f3;}.cls-27{fill:#7976f4;}.cls-28{fill:#7c77f6;}.cls-29{fill:#4b6ada;}.cls-30{fill:#4c6adb;}.cls-31{fill:#506bdd;}.cls-32{fill:#516bde;}.cls-33{fill:#4a69da;}.cls-34{fill:#4d6adb;}.cls-35{fill:#4e6adc;}.cls-36{fill:#4f6bdc;}.cls-37{fill:#526bde;}.cls-38{fill:#576de1;}.cls-39{fill:#586de2;}.cls-40{fill:#536cdf;}.cls-41{fill:#546cdf;}.cls-42{fill:#556ce0;}.cls-43{fill:#566de0;}.cls-44{fill:#596de2;}.cls-45{fill:#5b6ee3;}.cls-46{fill:#5c6ee4;}.cls-47{fill:#5a6ee3;}.cls-48{fill:#5d6fe4;}.cls-49{fill:#5e6fe5;}.cls-50{fill:#5f6fe6;}.cls-51{fill:#606fe6;}.cls-52{fill:#6170e7;}.cls-53{fill:#7e77f7;}.cls-54{fill:#7f78f7;}.cls-55{fill:#7d77f6;}.cls-56{fill:#8078f8;}.cls-57{fill:#4969d9;}.cls-58{fill:#4668d7;}.cls-59{fill:#4768d8;}.cls-60{fill:#4869d8;}.cls-61{fill:#8279f9;}.cls-62{fill:#8379fa;}.cls-63{fill:#8178f9;}.cls-64{fill:#8479fa;}.cls-65{fill:#867afb;}.cls-66{fill:#877afc;}.cls-67{fill:#8579fb;}.cls-68{fill:#4568d7;}.cls-69{fill:#4267d5;}.cls-70{fill:#4367d6;}.cls-71{fill:#4468d6;}</style><clipPath id="clip-path"><path class="cls-1" d="M16,6h0l.09-.1h0l.08-.07h0l.08-.08h0l.1-.1v0a1,1,0,0,0,.13-.47.93.93,0,0,0-.28-.7,1,1,0,0,0-.69-.3,1,1,0,0,0-.71.28,1,1,0,0,0-.22,1.09L12.81,7.3a1,1,0,0,0-1.1.19h0a1,1,0,0,0,0,1.4,1,1,0,0,0,.7.3,1,1,0,0,0,.48-.12h0L13,9h0l.07-.08h0l.08-.07.11-.1,0-.05a1,1,0,0,0,.05-.87l1.81-1.75A1,1,0,0,0,16,6Zm-.71-1.12a.36.36,0,0,1,.24-.09h0a.33.33,0,0,1,.24.1.35.35,0,0,1,.1.24.36.36,0,0,1-.11.24.31.31,0,0,1-.24.1.35.35,0,0,1-.24-.1A.36.36,0,0,1,15.28,4.92ZM12.64,8.45a.34.34,0,0,1-.48,0,.35.35,0,0,1-.1-.24A.32.32,0,0,1,12.17,8a.3.3,0,0,1,.23-.1.36.36,0,0,1,.25.11A.34.34,0,0,1,12.64,8.45ZM33.31,25.61a1,1,0,0,0-.91.63H28.21a1,1,0,0,0-.92-.63,1,1,0,0,0,0,2,1,1,0,0,0,.92-.63H32.4a1,1,0,0,0,.91.63,1,1,0,0,0,0-2Zm-6,1.34A.35.35,0,0,1,27,26.6a.34.34,0,0,1,.68,0A.35.35,0,0,1,27.29,27Zm6,0A.35.35,0,0,1,33,26.6a.35.35,0,0,1,.69,0A.35.35,0,0,1,33.31,27Zm9.2,7.25a1,1,0,0,0,.66.25,1,1,0,0,0,.74-.33A1,1,0,0,0,44,32.9l-.07-.09h0l-.07-.06h0l-.07-.06h0a.19.19,0,0,0-.1,0,1,1,0,0,0-.92,0l-3.8-3.38V24.7L41,23h8.67a1,1,0,0,0,.92.63,1,1,0,1,0,0-2,1,1,0,0,0-.92.63H40.74L38.2,24.36v5.16l4,3.6A1,1,0,0,0,42.51,34.2Zm.41-1a.35.35,0,0,1,.23-.12h0a.32.32,0,0,1,.23.09h0a.3.3,0,0,1,.11.23.32.32,0,0,1-.08.25.35.35,0,0,1-.49,0,.38.38,0,0,1-.11-.24A.34.34,0,0,1,42.92,33.24Zm7.66-11a.34.34,0,1,1-.34.34A.34.34,0,0,1,50.58,22.29Zm3.57,8.25a1,1,0,0,0-2,0,1,1,0,0,0,.63.92v5a1,1,0,0,0,.36,1.91,1,1,0,0,0,.36-1.91v-5A1,1,0,0,0,54.15,30.54Zm-1,7.14a.34.34,0,1,1,.34-.34A.34.34,0,0,1,53.16,37.68Zm.12-6.82h-.23a.32.32,0,0,1-.23-.32.34.34,0,1,1,.68,0A.33.33,0,0,1,53.28,30.86ZM51.58,11a1,1,0,0,0,.92-.62h3.63l1.51,2.37V20h-4l-2-2.71a1,1,0,0,0,.09-.87v0l-.08-.11,0,0h0l0-.05h0l-.06-.07h0v0a.35.35,0,0,0-.09-.07,1,1,0,0,0-1.22,0,.93.93,0,0,0-.39.65,1,1,0,0,0,.18.73,1,1,0,0,0,1,.37l2.22,3h5.15V12.55L56.52,9.66h-4A1,1,0,1,0,51.58,11ZM51,17.09a.34.34,0,0,1-.48-.08.34.34,0,0,1,.55-.4.32.32,0,0,1,.06.25A.36.36,0,0,1,51,17.09Zm.63-7.41a.35.35,0,1,1-.34.34A.35.35,0,0,1,51.58,9.68Zm-2,21.68V28.9a1,1,0,1,0-.73,0v2.46h0v2.58h0v2.5a1,1,0,1,0,.73,0V31.36Zm-.36,6.34a.34.34,0,1,1,.34-.34A.35.35,0,0,1,49.26,37.7Zm.11-9.4h-.23a.36.36,0,0,1-.23-.32.35.35,0,0,1,.69,0A.36.36,0,0,1,49.37,28.3Zm3.79-3.72a1,1,0,0,0-.92.63H41.55v3.25l2.09,1.86a1,1,0,0,0,.1.88v0l.1.09h0l.07.06h0l0,0h0l0,0h0a.19.19,0,0,0,.09.05,1,1,0,0,0,.48.12h0a1,1,0,0,0,.69-.33,1,1,0,0,0,.25-.71,1,1,0,0,0-.33-.68,1,1,0,0,0-1.11-.15l-1.84-1.64V25.93h10a1,1,0,0,0,1.91-.36A1,1,0,0,0,53.16,24.58Zm-8.85,5.86a.34.34,0,0,1,.26-.12.35.35,0,0,1,.23.09.34.34,0,0,1,0,.48.35.35,0,0,1-.23.12.37.37,0,0,1-.25-.09.3.3,0,0,1-.11-.23A.32.32,0,0,1,44.31,30.44Zm8.85-4.53a.34.34,0,0,1-.34-.34.34.34,0,1,1,.68,0A.34.34,0,0,1,53.16,25.91ZM26.27,9.66h5.08a.87.87,0,0,0,.22.34.92.92,0,0,0,.49.27l.08,0h.37l0-.05a1,1,0,0,0,.71-.94,1,1,0,0,0-.29-.7h0a1,1,0,0,0-.69-.29,1,1,0,0,0-.92.63H20.63l-5.22,3.83a1,1,0,0,0-1.11,0,1,1,0,0,0-.39.65,1,1,0,0,0,1,1.14.92.92,0,0,0,.39-.09.18.18,0,0,0,.1,0h0l.05,0h0l.08-.07h0a.34.34,0,0,0,.08-.09,1,1,0,0,0,.19-.88l5-3.7ZM32,9.06a.37.37,0,0,1,.24-.1.37.37,0,0,1,.25.1h0a.37.37,0,0,1,.1.24.34.34,0,0,1-.35.35.35.35,0,0,1-.34-.35A.37.37,0,0,1,32,9.06ZM15.09,13.88a.33.33,0,0,1-.26.07.33.33,0,0,1-.22-.14.35.35,0,0,1,.07-.48h0a.34.34,0,0,1,.48.08A.34.34,0,0,1,15.09,13.88Zm21,10.24a1,1,0,0,0-1.91-.36H23l-5.25-5.62V15.38l3.19-2.67a1,1,0,0,0,.88,0h0l.1-.08h0l0,0,0,0h0l.07,0h0l0,0h0a.2.2,0,0,0,.07-.1.88.88,0,0,0,.19-.5.94.94,0,0,0-.22-.72,1,1,0,0,0-1.7.95l-3.32,2.78-.13.11v3.37l5.56,5.95.11.11h11.5a1,1,0,0,0,1.91-.36ZM21.15,11.58h0a.32.32,0,0,1,.25-.07.31.31,0,0,1,.23.12.33.33,0,0,1,.08.25.34.34,0,0,1-.6.19.34.34,0,0,1,0-.49ZM34.73,24.12a.34.34,0,1,1,.34.34A.34.34,0,0,1,34.73,24.12ZM31,48V45.72a1,1,0,0,0-.36-1.91,1,1,0,0,0-.36,1.91v8a1,1,0,0,0,.36,1.91A1,1,0,0,0,31,53.73V48Zm-.36,7a.35.35,0,0,1-.34-.35.34.34,0,0,1,.34-.34.35.35,0,0,1,.35.34A.35.35,0,0,1,30.68,55Zm0-9.86a.34.34,0,0,1,0-.68.34.34,0,1,1,0,.68Zm.61-15a1,1,0,0,0-1-1,1,1,0,0,0-.92.63H25.2a1,1,0,1,0,0,.72h4.18a1,1,0,0,0,.92.63A1,1,0,0,0,31.29,30.18Zm-7,.34a.34.34,0,1,1,.34-.34A.34.34,0,0,1,24.28,30.52ZM30,30.18a.34.34,0,0,1,.34-.34.34.34,0,1,1,0,.68A.34.34,0,0,1,30,30.18Zm1.08,9V34.61L34,32.29h2.15a1,1,0,0,0,1.36.53,1,1,0,0,0,.5-.58,1,1,0,0,0-.06-.75.94.94,0,0,0-.34-.37v-.05l-.13,0h0l-.1,0h0l-.06,0h0l-.13,0,0,0a1,1,0,0,0-.47.11,1,1,0,0,0-.48.51c-.75,0-2.26,0-2.26,0h-.13l-3.27,2.58-.14.11v4.93a1,1,0,0,0-.63.92,1,1,0,0,0,2,0A1,1,0,0,0,31,39.19Zm6.11-7.59a.34.34,0,0,1,.05.63.33.33,0,0,1-.26,0,.34.34,0,0,1,.21-.65Zm-6.47,8.85a.34.34,0,0,1-.34-.34.35.35,0,0,1,.34-.35.36.36,0,0,1,.35.35A.35.35,0,0,1,30.68,40.45ZM5.87,23H8.28l2.45,2.45h0L14,28.69a1,1,0,0,0,.21,1.09,1,1,0,0,0,.7.29,1,1,0,1,0-.4-1.89l-1-1h0L9.31,23l-.73-.72H2.11a1,1,0,0,0-.91-.63,1,1,0,0,0,0,2A1,1,0,0,0,2.11,23H5.87Zm8.77,5.85a.35.35,0,1,1,0,.49.36.36,0,0,1,0-.49l-.12-.13ZM1.2,23a.34.34,0,1,1,.34-.34A.35.35,0,0,1,1.2,23Zm32.7,14.3h0l0,0h0l0,0,.08-.06h0l.12-.09v0a1,1,0,0,0,.15-.86l1.73-1.35h3.64L44,38l-4.47,3.29a1,1,0,0,0-.9-.07.21.21,0,0,0-.11,0h0l0,0h0l0,0h0l-.09.07h0a1,1,0,0,0,1.27,1.52,1,1,0,0,0,.36-1.06L45.18,38l-5.25-3.88H35.81l-1.93,1.5a1,1,0,0,0-1.12.07A1,1,0,0,0,32.59,37a1,1,0,0,0,1.15.31h0Zm5.27,5.08a.32.32,0,0,1-.25.07.37.37,0,0,1-.23-.14.36.36,0,0,1-.06-.25.37.37,0,0,1,.14-.23.36.36,0,0,1,.2-.06H39a.33.33,0,0,1,.23.14A.33.33,0,0,1,39.17,42.35ZM33.9,37.26Zm-.32-.57a.35.35,0,0,1-.48,0,.41.41,0,0,1-.07-.26.36.36,0,0,1,.13-.23h0a.32.32,0,0,1,.25-.06.33.33,0,0,1,.23.12A.34.34,0,0,1,33.58,36.69Zm-12.16-7.5a1,1,0,0,0-1,.58l-1.63-.08L16.4,31H9.85L5.24,26a1,1,0,0,0-.16-1.1,1,1,0,0,0-1.4-.06A1,1,0,0,0,3.48,26a.34.34,0,0,0,.06.12h0l.08.08h0l.07.08h0l.11.11h.05a1,1,0,0,0,.5.15,1.15,1.15,0,0,0,.36-.07l4.83,5.27h7.05L19,30.42l1.42.08a1,1,0,0,0,.63.62l0,0h.49l0,0a1,1,0,0,0,.76-.91,1,1,0,0,0-.26-.71A1,1,0,0,0,21.42,29.19ZM4.58,25.82a.34.34,0,0,1-.48,0A.38.38,0,0,1,4,25.55a.34.34,0,0,1,.11-.24.39.39,0,0,1,.23-.09h0a.44.44,0,0,1,.24.11.33.33,0,0,1,.08.25A.32.32,0,0,1,4.58,25.82Zm17,4.61a.3.3,0,0,1-.25.09h0a.34.34,0,0,1,0-.68h0a.3.3,0,0,1,.24.11.38.38,0,0,1,.09.25A.3.3,0,0,1,21.6,30.43ZM22,25.06a1,1,0,0,0-.92.63H17l-2.2-2.59a1,1,0,0,0,0-.88v0l-.08-.11h0l0-.06h0l-.07-.08h0a.34.34,0,0,0-.11-.07.91.91,0,0,0-.48-.18,1,1,0,0,0-1.07.9,1,1,0,0,0,.23.72,1,1,0,0,0,1.07.3l2.41,2.84H21.1A1,1,0,1,0,22,25.06Zm-7.84-2.17a.3.3,0,0,1-.24.08.31.31,0,0,1-.24-.12h0a.35.35,0,0,1,0-.48.34.34,0,1,1,.44.52ZM22,26.39a.34.34,0,1,1,.34-.34A.34.34,0,0,1,22,26.39Zm-11.9,3.2h0s0,.05.07.07a1,1,0,1,0,.7-1.68,1.1,1.1,0,0,0-.4.08L8.68,26.25a1,1,0,0,0-1.6-1.1,1,1,0,0,0-.29.7.94.94,0,0,0,.29.7l0,.05h0l0,0h0a1,1,0,0,0,1,.13L10,28.57a1.1,1.1,0,0,0-.08.4,1,1,0,0,0,.21.6h0Zm.53-.87a.34.34,0,0,1,.48,0h0a.36.36,0,0,1,0,.49.34.34,0,0,1-.48,0A.34.34,0,0,1,10.65,28.72ZM8,26.1a.35.35,0,1,1,0-.49.34.34,0,0,1,.1.24A.35.35,0,0,1,8,26.1ZM47,44.8h0l-.07.05h0l0,0h0l0,0h0l-.06,0h0a1,1,0,0,0-.29,1l-3.13,2.26v9.58a1,1,0,0,0-.63.92,1,1,0,0,0,2,0,1,1,0,0,0-.63-.92V48.54l2.83-2a1,1,0,0,0,1.11,0A1,1,0,0,0,47,44.8ZM43.79,59a.34.34,0,0,1,0-.68.34.34,0,1,1,0,.68Zm3.92-13.07a.36.36,0,0,1-.25.06.33.33,0,0,1-.22-.14.35.35,0,0,1,.07-.48.36.36,0,0,1,.2-.06.35.35,0,0,1,.28.14.34.34,0,0,1,.06.26A.3.3,0,0,1,47.71,45.94ZM19.28,5.81,16,8.52a1,1,0,0,0-.88,0h0l-.1.08h0l-.08.07h0l-.07.06h0l-.05.06a1,1,0,0,0,.68,1.6h.1a1,1,0,0,0,.62-.23,1,1,0,0,0,.31-1.07l3.08-2.55h6.82l1.78-1.84a1.21,1.21,0,0,0,.37.07,1,1,0,0,0,.72-.3A1,1,0,0,0,28,2.92H28l-.09.1h0l-.05,0,0,0h0l0,0h0l0,0h0l-.09.1v0a.84.84,0,0,0-.11.47.86.86,0,0,0,.09.39L26.05,5.81ZM15.74,9.65a.35.35,0,0,1-.48,0,.33.33,0,0,1-.08-.25.37.37,0,0,1,.12-.24.38.38,0,0,1,.22-.07.36.36,0,0,1,.27.12.37.37,0,0,1,.07.25A.31.31,0,0,1,15.74,9.65ZM28.27,3.53a.35.35,0,0,1,.24-.1.31.31,0,0,1,.24.1.34.34,0,0,1,.11.24.37.37,0,0,1-.1.24.34.34,0,0,1-.48,0A.35.35,0,0,1,28.27,3.53ZM60,32.05V26.57L57.47,24a1,1,0,0,0-.91-1.39,1,1,0,0,0-1,1,1,1,0,0,0,.22.61h0l.14.14.11.11h.05a1,1,0,0,0,.87,0l2.34,2.34v5.18a1,1,0,1,0,1.35.92A1,1,0,0,0,60,32.05ZM56.8,23.87a.34.34,0,0,1-.48,0,.36.36,0,0,1,0-.49.33.33,0,0,1,.24-.1.31.31,0,0,1,.24.1h0A.34.34,0,0,1,56.8,23.87Zm2.86,9.45a.35.35,0,0,1-.34-.35A.34.34,0,0,1,60,33,.35.35,0,0,1,59.66,33.32ZM35.73,43.91a1,1,0,1,0-1.35.92v5a1,1,0,0,0-.63.92,1,1,0,1,0,1.35-.92v-5A1,1,0,0,0,35.73,43.91Zm-1,7.14a.35.35,0,1,1,.34-.34A.34.34,0,0,1,34.74,51.05Zm0-6.8a.35.35,0,1,1,.34-.34A.34.34,0,0,1,34.74,44.25ZM39,37.53a1,1,0,1,0-.46-.56L35.24,39.6a1,1,0,0,0-1.11.09,1,1,0,1,0,1.57.47Zm.27-1.12a.34.34,0,1,1,0,.48A.34.34,0,0,1,39.22,36.41ZM35,40.73a.35.35,0,0,1-.48,0,.34.34,0,1,1,.48,0Zm5.2,14.52V46l6.62-5a1,1,0,0,0,1.3-1.44,1,1,0,0,0-.65-.38.93.93,0,0,0-.5.06h0l-.11.08h0l0,0h0l0,0h0l0,0,0,0h0l-.12.09v.05a1,1,0,0,0-.16.86l-6.76,5.15-.14.11v9.61a1,1,0,1,0,.72,0ZM47.1,39.83a.37.37,0,0,1,.2-.07.34.34,0,0,1,.21.62h0a.34.34,0,1,1-.41-.55Zm-.32-.57h0Zm-7,17.25a.34.34,0,1,1,0-.68.34.34,0,0,1,0,.68Zm-1.11-7.9a1,1,0,1,0-1.35.92V58a1,1,0,0,0-.63.92A1,1,0,1,0,38.07,58V49.53A1,1,0,0,0,38.7,48.61Zm-1,10.69a.35.35,0,1,1,.34-.34A.34.34,0,0,1,37.71,59.3Zm0-10.35a.34.34,0,1,1,.34-.34A.34.34,0,0,1,37.71,49ZM57.43,32.22V32.1h0V32l0,0a.85.85,0,0,0-.26-.41.93.93,0,0,0-.7-.28,1,1,0,0,0-1,1,1,1,0,0,0,.64.9l.11,3.66-5,4.89H49.83a1,1,0,0,0-.92-.63,1,1,0,0,0,0,2,1,1,0,0,0,.92-.63h1.66l5.32-5.2.12-.11-.12-4a1,1,0,0,0,.59-.7.21.21,0,0,0,0-.12h0v-.12Zm-8.52,10.2a.34.34,0,1,1,0-.68.34.34,0,1,1,0,.68Zm7.54-9.84v.18h0v-.18a.33.33,0,0,1-.35-.33.34.34,0,0,1,.33-.35.34.34,0,0,1,0,.68ZM24,21.5a1,1,0,0,0,.92-.63h8.92a1,1,0,1,0,0-.72H24.89a1,1,0,0,0-.92-.63,1,1,0,0,0,0,2Zm10.76-1.34a.35.35,0,0,1,.34.35.34.34,0,0,1-.68,0A.35.35,0,0,1,34.73,20.16ZM24,20.16a.35.35,0,0,1,.34.35.34.34,0,0,1-.68,0A.35.35,0,0,1,24,20.16Zm2.25-7a1,1,0,0,0,.15-1.39.94.94,0,0,0-.66-.37,1,1,0,0,0-.53.09l-.1,0,0,0-.08.06h0l-.08.06h0a.46.46,0,0,0-.07.1,1,1,0,0,0-.16.89l-3.91,3.11a1,1,0,0,0-.87-.06h-.05l-.1.08h0l0,0h0l0,0h0l-.06.05h0a.28.28,0,0,0-.07.09,1,1,0,0,0,0,1.23,1,1,0,0,0,.67.36h.11a1,1,0,0,0,.61-.21,1,1,0,0,0,.33-1.07l3.91-3.1A1,1,0,0,0,26.22,13.11Zm-.83-1a.35.35,0,0,1,.48.06.34.34,0,0,1-.06.48h0a.34.34,0,0,1-.48-.06A.35.35,0,0,1,25.39,12.06Zm-5.67,3.7h0Zm.75,1.09a.34.34,0,1,1-.42-.54.31.31,0,0,1,.21-.07.34.34,0,0,1,.27.13A.35.35,0,0,1,20.47,16.85Zm4.6-5.34h0Zm7.57,5h2.43A1,1,0,0,0,37,16.1a1,1,0,0,0-1.91-.37H26.15a1,1,0,0,0-.92-.62,1,1,0,0,0,0,2,1,1,0,0,0,.92-.63h6.49ZM36,15.75a.35.35,0,1,1-.34.35A.35.35,0,0,1,36,15.75Zm-10.76.69a.35.35,0,0,1,0-.69.35.35,0,1,1,0,.69Zm12.32-9h0a1,1,0,0,0-1.38.25,1,1,0,0,0,.07,1.22l.08.09h0l0,0h0l.06,0h0l.07.05h0l.1,0a1,1,0,0,0,.9-.08l4,3.09.09.08h2.69a1,1,0,0,0,1.91-.36,1,1,0,0,0-1.91-.37H41.83l-3.89-3A1,1,0,0,0,37.55,7.39Zm-.29,1a.34.34,0,0,1-.47.08h0a.3.3,0,0,1-.14-.22A.31.31,0,0,1,36.7,8,.35.35,0,0,1,37,7.86a.36.36,0,0,1,.2.06A.35.35,0,0,1,37.26,8.4Zm7.93,3.1a.35.35,0,1,1-.34.35A.35.35,0,0,1,45.19,11.5Zm-17.5,1.63a1,1,0,0,0-1.1.2,1,1,0,0,0-.29.7,1,1,0,0,0,1,1,.93.93,0,0,0,.52-.15l.09,0h0l.07-.07v0h0l0,0,0,0h0l0,0h0a.33.33,0,0,0,.06-.1,1,1,0,0,0,.07-.91l1.43-1.43,7.94.24,4,3.28h2.07a1,1,0,0,0,.92.63,1,1,0,0,0,0-2,1,1,0,0,0-.92.63H41.84l-4-3.27-8.5-.26Zm-.16,1.14h0a.31.31,0,0,1-.24.1.28.28,0,0,1-.24-.1.34.34,0,0,1,0-.48h0a.34.34,0,0,1,.48,0A.33.33,0,0,1,27.53,14.27Zm17,.76a.34.34,0,1,1-.34.34A.34.34,0,0,1,44.57,15ZM11.19,20.85a1,1,0,0,0,0-2,1,1,0,0,0-.92.63H4.57V16.1l2.34-2.83a1,1,0,0,0,.9-.15.18.18,0,0,0,.09-.07h0L8,13l0,0H8l0,0H8l0,0h0a.24.24,0,0,0,.06-.11,1,1,0,0,0,.09-.52,1,1,0,0,0-.35-.67,1,1,0,0,0-.73-.22.94.94,0,0,0-.66.35,1,1,0,0,0-.11,1.11l-2.5,3v4.38h6.42A1,1,0,0,0,11.19,20.85Zm0-1.33a.34.34,0,1,1-.34.34A.34.34,0,0,1,11.19,19.52ZM7,12.11H7A.35.35,0,0,1,7.19,12a.33.33,0,0,1,.25.08.35.35,0,0,1,.12.23.33.33,0,0,1-.08.25.34.34,0,0,1-.48,0H7A.35.35,0,0,1,7,12.11Zm45.76-.77h-.05l-.11,0a1,1,0,0,0-.72.57l-4.89-.21v5l-1.78,1.11a1,1,0,0,0-.87-.16l0,0-.11.07,0,0h0l-.14.08h0l-.13.08V18a.84.84,0,0,0-.22.43,1,1,0,0,0,.12.74,1,1,0,0,0,.84.47,1,1,0,0,0,.52-.15,1,1,0,0,0,.45-1l2.13-1.32V12.47l4.13.18a1,1,0,0,0,1.93-.27,1,1,0,0,0-.26-.72,1,1,0,0,0-.46-.28.2.2,0,0,0-.11,0h-.19Zm-8,7.6a.34.34,0,0,1-.26,0,.32.32,0,0,1-.21-.15.3.3,0,0,1,0-.26.32.32,0,0,1,.15-.21.35.35,0,0,1,.18-.05h.08a.32.32,0,0,1,.21.15.34.34,0,0,1,0,.26A.32.32,0,0,1,44.75,18.94Zm8.33-6.59a.34.34,0,0,1-.36.32h0a.33.33,0,0,1-.32-.35.33.33,0,0,1,.35-.33A.35.35,0,0,1,53.08,12.35ZM33.87,5.59a1,1,0,0,0-.7.29,1,1,0,0,0-.22.34H30.38a1,1,0,0,0-.91-.63,1,1,0,0,0-.7,1.69,1,1,0,0,0,.7.29h.12a1,1,0,0,0,.79-.62H33a.87.87,0,0,0,.22.34,1,1,0,0,0,.58.28h.12a1,1,0,1,0,0-2Zm-4.4,1.33a.34.34,0,1,1,.34-.34A.35.35,0,0,1,29.47,6.92Zm4.4,0a.35.35,0,0,1-.35-.34.32.32,0,0,1,.11-.24.35.35,0,0,1,.24-.1h0a.34.34,0,1,1,0,.68ZM22.81,4.76a.9.9,0,0,0,.42-.1.23.23,0,0,0,.1,0h0l.07,0,0,0h0l.05,0h0l.07-.09a1,1,0,0,0,.16-.9l2.71-2.14H37.64a1,1,0,0,0,.92.63,1,1,0,0,0,1-1,1,1,0,0,0-1-1,1,1,0,0,0-.92.63H26.2l-2.9,2.3a1,1,0,0,0-.38-.13,1,1,0,0,0-.73.21,1,1,0,0,0-.36.66,1,1,0,0,0,.2.73A1,1,0,0,0,22.81,4.76ZM38.56.64a.34.34,0,1,1-.34.34A.34.34,0,0,1,38.56.64Zm-16,2.86h0A.34.34,0,0,1,23,4,.34.34,0,0,1,22.54,4,.35.35,0,0,1,22.59,3.5ZM10.2,12.34a.2.2,0,0,0,0,.13h0l0,.14,0,.07h0l0,.16h0a1,1,0,0,0,.84.47,1.15,1.15,0,0,0,.26,0,1,1,0,0,0-.15-1.94l-1-3.82,4.07-4.06h4.15a1,1,0,0,0,.92.62,1,1,0,1,0,0-2,1,1,0,0,0-.92.63H14L9.47,7.31l1.13,4.23A1,1,0,0,0,10.2,12.34Zm.9-.34h.09a.34.34,0,0,1,.33.25h0a.34.34,0,0,1-.24.42.34.34,0,0,1-.42-.24A.34.34,0,0,1,11.1,12Zm8.31-9.24a.35.35,0,1,1-.34.34A.34.34,0,0,1,19.41,2.76Zm-11.12,15A1,1,0,0,0,9,18h.12a1,1,0,0,0,.8-.62h2.56a1.11,1.11,0,0,0,.22.34,1,1,0,0,0,.58.27v0h.12a1,1,0,1,0-.7-1.69,1,1,0,0,0-.22.34H9.91a1,1,0,1,0-1.62,1.06Zm4.86-.94a.36.36,0,0,1,.24-.11h0a.35.35,0,0,1,.34.35.34.34,0,0,1-.68,0A.31.31,0,0,1,13.15,16.81ZM9,16.7a.35.35,0,0,1,.24.1.37.37,0,0,1,.1.25.34.34,0,0,1-.68,0A.35.35,0,0,1,9,16.7Zm29.17,4.69a1,1,0,0,0,.91-.62H48A1,1,0,1,0,48,20H39.07a1,1,0,0,0-.91-.62,1,1,0,1,0,0,2Zm10.75-1.33a.35.35,0,1,1,0,.69.35.35,0,0,1,0-.69Zm-10.75,0a.35.35,0,1,1-.35.35A.35.35,0,0,1,38.16,20.06ZM35.68,2.78a1,1,0,1,0,.92,1.35h3.66l5.53,4.71.1.09H48.6a1,1,0,0,0,1.91-.36,1,1,0,0,0-1.91-.36H46.15L40.63,3.5l-.1-.09H36.6A1,1,0,0,0,35.68,2.78Zm0,1.33A.34.34,0,1,1,36,3.77.34.34,0,0,1,35.68,4.11ZM49.52,8.23a.34.34,0,1,1-.34.34A.34.34,0,0,1,49.52,8.23Zm-10,10.27a1,1,0,1,0,.92-1.35,1,1,0,0,0-.92.63H30.61a1,1,0,0,0-.92-.63,1,1,0,0,0,0,2,1,1,0,0,0,.92-.63h8.92Zm.92-.7a.34.34,0,0,1,.34.34.34.34,0,1,1-.68,0A.34.34,0,0,1,40.45,17.8Zm-10.76.69a.35.35,0,0,1-.34-.35.34.34,0,0,1,.34-.34.35.35,0,0,1,.35.34A.35.35,0,0,1,29.69,18.49Z"/></clipPath></defs><path d="M64.74,20h3.77V36.29H64.74Z"/><path d="M88,20V36.29h-3.1L76.79,26.4v9.89H73.07V20h3.12l8.1,9.89V20Z"/><path d="M108.15,20,101.1,36.29H97.37L90.34,20h4.07l5,11.64,5-11.64Z"/><path d="M122.81,33.27v3H110.2V20h12.31v3h-8.57v3.54h7.57v2.93h-7.57v3.78Z"/><path d="M125.23,34.69l1.28-2.84a9.63,9.63,0,0,0,5.38,1.7c2.24,0,3.14-.75,3.14-1.75,0-3.05-9.47-1-9.47-7,0-2.77,2.23-5.07,6.87-5.07a11,11,0,0,1,5.65,1.44L136.92,24a9.2,9.2,0,0,0-4.52-1.28c-2.23,0-3.09.84-3.09,1.87,0,3,9.47.93,9.47,6.91,0,2.72-2.26,5.05-6.91,5.05A11.69,11.69,0,0,1,125.23,34.69Z"/><path d="M152.79,32.8h-7.56l-1.45,3.49h-3.86L147.18,20h3.73l7.28,16.29h-3.95Zm-1.18-2.86L149,23.7l-2.58,6.24Z"/><path d="M175.54,31.85c0,2.81-2.24,4.44-6.52,4.44h-8.43V20h8c4.08,0,6.17,1.7,6.17,4.23a3.93,3.93,0,0,1-2.16,3.59A4,4,0,0,1,175.54,31.85Zm-11.2-9v3.84h3.75c1.84,0,2.84-.65,2.84-1.93s-1-1.91-2.84-1.91Zm7.4,8.61c0-1.37-1.05-2-3-2h-4.4v4h4.4C170.69,33.45,171.74,32.85,171.74,31.45Z"/><path d="M179.09,20h3.78V33.22H191v3.07H179.09Z"/><path d="M206.47,33.27v3H193.85V20h12.32v3H197.6v3.54h7.57v2.93H197.6v3.78Z"/><path d="M221.11,31.94H212l-2,4.35h-1.79L215.73,20h1.7l7.45,16.29h-1.81Zm-.63-1.4-3.91-8.75-3.91,8.75Z"/><path d="M228.28,20H230V36.29h-1.72Z"/><g class="cls-2"><rect class="cls-3" x="29.35" y="17.8" width="0.64" height="0.68"/><rect class="cls-4" x="29.99" y="17.8" width="0.05" height="0.68"/><rect class="cls-5" x="40.11" y="17.8" width="0.39" height="0.68"/><rect class="cls-6" x="40.5" y="17.8" width="0.29" height="0.68"/><rect class="cls-7" x="28.7" y="17.15" width="0.41" height="1.98"/><rect class="cls-3" x="29.11" y="17.15" width="0.88" height="1.98"/><rect class="cls-4" x="29.99" y="17.15" width="0.88" height="1.98"/><rect class="cls-8" x="30.86" y="17.15" width="0.88" height="1.98"/><rect class="cls-9" x="31.74" y="17.15" width="0.88" height="1.98"/><rect class="cls-10" x="32.62" y="17.15" width="0.88" height="1.98"/><rect class="cls-11" x="33.49" y="17.15" width="0.88" height="1.98"/><rect class="cls-12" x="34.37" y="17.15" width="0.88" height="1.98"/><rect class="cls-13" x="35.24" y="17.15" width="0.88" height="1.98"/><rect class="cls-14" x="36.12" y="17.15" width="0.88" height="1.98"/><rect class="cls-15" x="37" y="17.15" width="0.88" height="1.98"/><rect class="cls-16" x="37.87" y="17.15" width="0.88" height="1.98"/><rect class="cls-17" x="38.75" y="17.15" width="0.88" height="1.98"/><rect class="cls-5" x="39.62" y="17.15" width="0.88" height="1.98"/><rect class="cls-6" x="40.5" y="17.15" width="0.88" height="1.98"/><rect class="cls-18" x="41.38" y="17.15" width="0.06" height="1.98"/><rect class="cls-19" x="49.18" y="8.23" width="0.08" height="0.68"/><rect class="cls-20" x="49.26" y="8.23" width="0.6" height="0.68"/><rect class="cls-13" x="35.34" y="3.43" width="0.68" height="0.68"/><rect class="cls-12" x="34.69" y="2.78" width="0.56" height="6.77"/><rect class="cls-13" x="35.24" y="2.78" width="0.88" height="6.77"/><rect class="cls-14" x="36.12" y="2.78" width="0.88" height="6.77"/><rect class="cls-15" x="37" y="2.78" width="0.88" height="6.77"/><rect class="cls-16" x="37.87" y="2.78" width="0.88" height="6.77"/><rect class="cls-17" x="38.75" y="2.78" width="0.88" height="6.77"/><rect class="cls-5" x="39.62" y="2.78" width="0.88" height="6.77"/><rect class="cls-6" x="40.5" y="2.78" width="0.88" height="6.77"/><rect class="cls-18" x="41.38" y="2.78" width="0.88" height="6.77"/><rect class="cls-21" x="42.25" y="2.78" width="0.88" height="6.77"/><rect class="cls-22" x="43.13" y="2.78" width="0.88" height="6.77"/><rect class="cls-23" x="44" y="2.78" width="0.88" height="6.77"/><rect class="cls-24" x="44.88" y="2.78" width="0.88" height="6.77"/><rect class="cls-25" x="45.76" y="2.78" width="0.88" height="6.77"/><rect class="cls-26" x="46.63" y="2.78" width="0.88" height="6.77"/><rect class="cls-27" x="47.51" y="2.78" width="0.88" height="6.77"/><rect class="cls-19" x="48.38" y="2.78" width="0.88" height="6.77"/><rect class="cls-20" x="49.26" y="2.78" width="0.88" height="6.77"/><rect class="cls-28" x="50.14" y="2.78" width="0.37" height="6.77"/><rect class="cls-15" x="37.81" y="20.06" width="0.06" height="0.68"/><rect class="cls-16" x="37.87" y="20.06" width="0.63" height="0.68"/><rect class="cls-19" x="48.57" y="20.06" width="0.68" height="0.68"/><rect class="cls-15" x="37.17" y="19.42" width="0.71" height="1.98"/><rect class="cls-16" x="37.87" y="19.42" width="0.88" height="1.98"/><rect class="cls-17" x="38.75" y="19.42" width="0.88" height="1.98"/><rect class="cls-5" x="39.62" y="19.42" width="0.88" height="1.98"/><rect class="cls-6" x="40.5" y="19.42" width="0.88" height="1.98"/><rect class="cls-18" x="41.38" y="19.42" width="0.88" height="1.98"/><rect class="cls-21" x="42.25" y="19.42" width="0.88" height="1.98"/><rect class="cls-22" x="43.13" y="19.42" width="0.88" height="1.98"/><rect class="cls-23" x="44" y="19.42" width="0.88" height="1.98"/><rect class="cls-24" x="44.88" y="19.42" width="0.88" height="1.98"/><rect class="cls-25" x="45.76" y="19.42" width="0.88" height="1.98"/><rect class="cls-26" x="46.63" y="19.42" width="0.88" height="1.98"/><rect class="cls-27" x="47.51" y="19.42" width="0.88" height="1.98"/><rect class="cls-19" x="48.38" y="19.42" width="0.88" height="1.98"/><rect class="cls-20" x="49.26" y="19.42" width="0.64" height="1.98"/><rect class="cls-29" x="8.65" y="16.7" width="0.32" height="0.68"/><rect class="cls-30" x="8.97" y="16.7" width="0.37" height="0.68"/><rect class="cls-31" x="13.05" y="16.7" width="0.3" height="0.68"/><rect class="cls-32" x="13.35" y="16.7" width="0.39" height="0.68"/><rect class="cls-33" x="8" y="16.06" width="0.09" height="1.98"/><rect class="cls-29" x="8.09" y="16.06" width="0.88" height="1.98"/><rect class="cls-30" x="8.97" y="16.06" width="0.88" height="1.98"/><rect class="cls-34" x="9.84" y="16.06" width="0.88" height="1.98"/><rect class="cls-35" x="10.72" y="16.06" width="0.88" height="1.98"/><rect class="cls-36" x="11.59" y="16.06" width="0.88" height="1.98"/><rect class="cls-31" x="12.47" y="16.06" width="0.88" height="1.98"/><rect class="cls-32" x="13.35" y="16.06" width="0.88" height="1.98"/><rect class="cls-37" x="14.22" y="16.06" width="0.16" height="1.98"/><rect class="cls-38" x="19.07" y="2.76" width="0.41" height="0.68"/><rect class="cls-39" x="19.48" y="2.76" width="0.27" height="0.68"/><rect class="cls-35" x="10.81" y="11.99" width="0.76" height="0.7"/><rect class="cls-30" x="9.47" y="2.11" width="0.38" height="11.21"/><rect class="cls-34" x="9.84" y="2.11" width="0.88" height="11.21"/><rect class="cls-35" x="10.72" y="2.11" width="0.88" height="11.21"/><rect class="cls-36" x="11.59" y="2.11" width="0.88" height="11.21"/><rect class="cls-31" x="12.47" y="2.11" width="0.88" height="11.21"/><rect class="cls-32" x="13.35" y="2.11" width="0.88" height="11.21"/><rect class="cls-37" x="14.22" y="2.11" width="0.88" height="11.21"/><rect class="cls-40" x="15.1" y="2.11" width="0.88" height="11.21"/><rect class="cls-41" x="15.97" y="2.11" width="0.88" height="11.21"/><rect class="cls-42" x="16.85" y="2.11" width="0.88" height="11.21"/><rect class="cls-43" x="17.73" y="2.11" width="0.88" height="11.21"/><rect class="cls-38" x="18.6" y="2.11" width="0.88" height="11.21"/><rect class="cls-39" x="19.48" y="2.11" width="0.88" height="11.21"/><rect class="cls-44" x="20.35" y="2.11" width="0.04" height="11.21"/><rect class="cls-45" x="22.42" y="3.39" width="0.56" height="0.77"/><rect class="cls-46" x="22.98" y="3.39" width="0.21" height="0.77"/><rect class="cls-16" x="38.22" y="0.64" width="0.53" height="0.68"/><rect class="cls-17" x="38.75" y="0.64" width="0.15" height="0.68"/><rect class="cls-47" x="21.8" y="-0.01" width="0.31" height="4.77"/><rect class="cls-45" x="22.11" y="-0.01" width="0.88" height="4.77"/><rect class="cls-46" x="22.98" y="-0.01" width="0.88" height="4.77"/><rect class="cls-48" x="23.86" y="-0.01" width="0.88" height="4.77"/><rect class="cls-49" x="24.73" y="-0.01" width="0.88" height="4.77"/><rect class="cls-50" x="25.61" y="-0.01" width="0.88" height="4.77"/><rect class="cls-51" x="26.49" y="-0.01" width="0.88" height="4.77"/><rect class="cls-52" x="27.36" y="-0.01" width="0.88" height="4.77"/><rect class="cls-7" x="28.24" y="-0.01" width="0.88" height="4.77"/><rect class="cls-3" x="29.11" y="-0.01" width="0.88" height="4.77"/><rect class="cls-4" x="29.99" y="-0.01" width="0.88" height="4.77"/><rect class="cls-8" x="30.86" y="-0.01" width="0.88" height="4.77"/><rect class="cls-9" x="31.74" y="-0.01" width="0.88" height="4.77"/><rect class="cls-10" x="32.62" y="-0.01" width="0.88" height="4.77"/><rect class="cls-11" x="33.49" y="-0.01" width="0.88" height="4.77"/><rect class="cls-12" x="34.37" y="-0.01" width="0.88" height="4.77"/><rect class="cls-13" x="35.24" y="-0.01" width="0.88" height="4.77"/><rect class="cls-14" x="36.12" y="-0.01" width="0.88" height="4.77"/><rect class="cls-15" x="37" y="-0.01" width="0.88" height="4.77"/><rect class="cls-16" x="37.87" y="-0.01" width="0.88" height="4.77"/><rect class="cls-17" x="38.75" y="-0.01" width="0.8" height="4.77"/><rect class="cls-11" x="33.52" y="6.24" width="0.68" height="0.68"/><rect class="cls-3" x="29.12" y="6.24" width="0.68" height="0.68"/><rect class="cls-7" x="28.48" y="5.59" width="0.64" height="1.98"/><rect class="cls-3" x="29.11" y="5.59" width="0.88" height="1.98"/><rect class="cls-4" x="29.99" y="5.59" width="0.88" height="1.98"/><rect class="cls-8" x="30.86" y="5.59" width="0.88" height="1.98"/><rect class="cls-9" x="31.74" y="5.59" width="0.88" height="1.98"/><rect class="cls-10" x="32.62" y="5.59" width="0.88" height="1.98"/><rect class="cls-11" x="33.49" y="5.59" width="0.88" height="1.98"/><rect class="cls-12" x="34.37" y="5.59" width="0.49" height="1.98"/><rect class="cls-53" x="52.39" y="11.98" width="0.38" height="0.7"/><rect class="cls-54" x="52.76" y="11.98" width="0.32" height="0.7"/><rect class="cls-23" x="44.21" y="18.31" width="0.67" height="0.7"/><rect class="cls-24" x="44.88" y="18.31" width="0.04" height="0.7"/><rect class="cls-22" x="43.55" y="11.34" width="0.46" height="8.3"/><rect class="cls-23" x="44" y="11.34" width="0.88" height="8.3"/><rect class="cls-24" x="44.88" y="11.34" width="0.88" height="8.3"/><rect class="cls-25" x="45.76" y="11.34" width="0.88" height="8.3"/><rect class="cls-26" x="46.63" y="11.34" width="0.88" height="8.3"/><rect class="cls-27" x="47.51" y="11.34" width="0.88" height="8.3"/><rect class="cls-19" x="48.38" y="11.34" width="0.88" height="8.3"/><rect class="cls-20" x="49.26" y="11.34" width="0.88" height="8.3"/><rect class="cls-28" x="50.14" y="11.34" width="0.88" height="8.3"/><rect class="cls-55" x="51.01" y="11.34" width="0.88" height="8.3"/><rect class="cls-53" x="51.89" y="11.34" width="0.88" height="8.3"/><rect class="cls-54" x="52.76" y="11.34" width="0.88" height="8.3"/><rect class="cls-56" x="53.64" y="11.34" width="0.1" height="8.3"/><rect class="cls-57" x="6.84" y="11.98" width="0.38" height="0.73"/><rect class="cls-33" x="7.21" y="11.98" width="0.35" height="0.73"/><rect class="cls-35" x="10.85" y="19.52" width="0.68" height="0.68"/><rect class="cls-58" x="3.85" y="11.32" width="0.74" height="9.53"/><rect class="cls-59" x="4.59" y="11.32" width="0.88" height="9.53"/><rect class="cls-60" x="5.46" y="11.32" width="0.88" height="9.53"/><rect class="cls-57" x="6.34" y="11.32" width="0.88" height="9.53"/><rect class="cls-33" x="7.21" y="11.32" width="0.88" height="9.53"/><rect class="cls-29" x="8.09" y="11.32" width="0.88" height="9.53"/><rect class="cls-30" x="8.97" y="11.32" width="0.88" height="9.53"/><rect class="cls-34" x="9.84" y="11.32" width="0.88" height="9.53"/><rect class="cls-35" x="10.72" y="11.32" width="0.88" height="9.53"/><rect class="cls-36" x="11.59" y="11.32" width="0.59" height="9.53"/><rect class="cls-23" x="44.23" y="15.03" width="0.65" height="0.68"/><rect class="cls-24" x="44.88" y="15.03" width="0.03" height="0.68"/><rect class="cls-51" x="26.92" y="13.66" width="0.44" height="0.73"/><rect class="cls-52" x="27.36" y="13.66" width="0.31" height="0.73"/><rect class="cls-50" x="26.3" y="11.48" width="0.18" height="4.88"/><rect class="cls-51" x="26.49" y="11.48" width="0.88" height="4.88"/><rect class="cls-52" x="27.36" y="11.48" width="0.88" height="4.88"/><rect class="cls-7" x="28.24" y="11.48" width="0.88" height="4.88"/><rect class="cls-3" x="29.11" y="11.48" width="0.88" height="4.88"/><rect class="cls-4" x="29.99" y="11.48" width="0.88" height="4.88"/><rect class="cls-8" x="30.86" y="11.48" width="0.88" height="4.88"/><rect class="cls-9" x="31.74" y="11.48" width="0.88" height="4.88"/><rect class="cls-10" x="32.62" y="11.48" width="0.88" height="4.88"/><rect class="cls-11" x="33.49" y="11.48" width="0.88" height="4.88"/><rect class="cls-12" x="34.37" y="11.48" width="0.88" height="4.88"/><rect class="cls-13" x="35.24" y="11.48" width="0.88" height="4.88"/><rect class="cls-14" x="36.12" y="11.48" width="0.88" height="4.88"/><rect class="cls-15" x="37" y="11.48" width="0.88" height="4.88"/><rect class="cls-16" x="37.87" y="11.48" width="0.88" height="4.88"/><rect class="cls-17" x="38.75" y="11.48" width="0.88" height="4.88"/><rect class="cls-5" x="39.62" y="11.48" width="0.88" height="4.88"/><rect class="cls-6" x="40.5" y="11.48" width="0.88" height="4.88"/><rect class="cls-18" x="41.38" y="11.48" width="0.88" height="4.88"/><rect class="cls-21" x="42.25" y="11.48" width="0.88" height="4.88"/><rect class="cls-22" x="43.13" y="11.48" width="0.88" height="4.88"/><rect class="cls-23" x="44" y="11.48" width="0.88" height="4.88"/><rect class="cls-24" x="44.88" y="11.48" width="0.68" height="4.88"/><rect class="cls-23" x="44.85" y="11.5" width="0.03" height="0.68"/><rect class="cls-24" x="44.88" y="11.5" width="0.65" height="0.68"/><rect class="cls-14" x="36.63" y="7.86" width="0.37" height="0.73"/><rect class="cls-15" x="37" y="7.86" width="0.38" height="0.73"/><rect class="cls-13" x="35.91" y="7.08" width="0.21" height="5.76"/><rect class="cls-14" x="36.12" y="7.08" width="0.88" height="5.76"/><rect class="cls-15" x="37" y="7.08" width="0.88" height="5.76"/><rect class="cls-16" x="37.87" y="7.08" width="0.88" height="5.76"/><rect class="cls-17" x="38.75" y="7.08" width="0.88" height="5.76"/><rect class="cls-5" x="39.62" y="7.08" width="0.88" height="5.76"/><rect class="cls-6" x="40.5" y="7.08" width="0.88" height="5.76"/><rect class="cls-18" x="41.38" y="7.08" width="0.88" height="5.76"/><rect class="cls-21" x="42.25" y="7.08" width="0.88" height="5.76"/><rect class="cls-22" x="43.13" y="7.08" width="0.88" height="5.76"/><rect class="cls-23" x="44" y="7.08" width="0.88" height="5.76"/><rect class="cls-24" x="44.88" y="7.08" width="0.88" height="5.76"/><rect class="cls-25" x="45.76" y="7.08" width="0.42" height="5.76"/><rect class="cls-49" x="24.89" y="15.75" width="0.68" height="0.68"/><rect class="cls-13" x="35.65" y="15.75" width="0.47" height="0.68"/><rect class="cls-14" x="36.12" y="15.75" width="0.21" height="0.68"/><rect class="cls-48" x="24.24" y="15.11" width="0.49" height="1.98"/><rect class="cls-49" x="24.73" y="15.11" width="0.88" height="1.98"/><rect class="cls-50" x="25.61" y="15.11" width="0.88" height="1.98"/><rect class="cls-51" x="26.49" y="15.11" width="0.88" height="1.98"/><rect class="cls-52" x="27.36" y="15.11" width="0.88" height="1.98"/><rect class="cls-7" x="28.24" y="15.11" width="0.88" height="1.98"/><rect class="cls-3" x="29.11" y="15.11" width="0.88" height="1.98"/><rect class="cls-4" x="29.99" y="15.11" width="0.88" height="1.98"/><rect class="cls-8" x="30.86" y="15.11" width="0.88" height="1.98"/><rect class="cls-9" x="31.74" y="15.11" width="0.88" height="1.98"/><rect class="cls-10" x="32.62" y="15.11" width="0.88" height="1.98"/><rect class="cls-11" x="33.49" y="15.11" width="0.88" height="1.98"/><rect class="cls-12" x="34.37" y="15.11" width="0.88" height="1.98"/><rect class="cls-13" x="35.24" y="15.11" width="0.88" height="1.98"/><rect class="cls-14" x="36.12" y="15.11" width="0.86" height="1.98"/><rect class="cls-49" x="25.06" y="11.5" width="0.01" height="0.01"/><rect class="cls-39" x="19.87" y="16.24" width="0.48" height="0.73"/><rect class="cls-44" x="20.35" y="16.24" width="0.29" height="0.73"/><rect class="cls-39" x="19.71" y="15.75" height="0.01"/><rect class="cls-49" x="25.22" y="11.99" width="0.39" height="0.73"/><rect class="cls-50" x="25.61" y="11.99" width="0.38" height="0.73"/><rect class="cls-38" x="19.19" y="11.33" width="0.28" height="6.24"/><rect class="cls-39" x="19.48" y="11.33" width="0.88" height="6.24"/><rect class="cls-44" x="20.35" y="11.33" width="0.88" height="6.24"/><rect class="cls-47" x="21.23" y="11.33" width="0.88" height="6.24"/><rect class="cls-45" x="22.11" y="11.33" width="0.88" height="6.24"/><rect class="cls-46" x="22.98" y="11.33" width="0.88" height="6.24"/><rect class="cls-48" x="23.86" y="11.33" width="0.88" height="6.24"/><rect class="cls-49" x="24.73" y="11.33" width="0.88" height="6.24"/><rect class="cls-50" x="25.61" y="11.33" width="0.88" height="6.24"/><rect class="cls-51" x="26.49" y="11.33" width="0.23" height="6.24"/><rect class="cls-46" x="23.63" y="20.16" width="0.23" height="0.68"/><rect class="cls-48" x="23.86" y="20.16" width="0.46" height="0.68"/><rect class="cls-12" x="34.39" y="20.16" width="0.68" height="0.68"/><rect class="cls-46" x="22.98" y="19.52" width="0.87" height="1.98"/><rect class="cls-48" x="23.86" y="19.52" width="0.88" height="1.98"/><rect class="cls-49" x="24.73" y="19.52" width="0.88" height="1.98"/><rect class="cls-50" x="25.61" y="19.52" width="0.88" height="1.98"/><rect class="cls-51" x="26.49" y="19.52" width="0.88" height="1.98"/><rect class="cls-52" x="27.36" y="19.52" width="0.88" height="1.98"/><rect class="cls-7" x="28.24" y="19.52" width="0.88" height="1.98"/><rect class="cls-3" x="29.11" y="19.52" width="0.88" height="1.98"/><rect class="cls-4" x="29.99" y="19.52" width="0.88" height="1.98"/><rect class="cls-8" x="30.86" y="19.52" width="0.88" height="1.98"/><rect class="cls-9" x="31.74" y="19.52" width="0.88" height="1.98"/><rect class="cls-10" x="32.62" y="19.52" width="0.88" height="1.98"/><rect class="cls-11" x="33.49" y="19.52" width="0.88" height="1.98"/><rect class="cls-12" x="34.37" y="19.52" width="0.88" height="1.98"/><rect class="cls-13" x="35.24" y="19.52" width="0.47" height="1.98"/><rect class="cls-61" x="56.1" y="31.89" width="0.17" height="0.87"/><rect class="cls-62" x="56.27" y="31.89" width="0.52" height="0.87"/><rect class="cls-19" x="48.57" y="41.74" width="0.68" height="0.68"/><rect class="cls-27" x="47.92" y="31.24" width="0.46" height="11.82"/><rect class="cls-19" x="48.38" y="31.24" width="0.88" height="11.82"/><rect class="cls-20" x="49.26" y="31.24" width="0.88" height="11.82"/><rect class="cls-28" x="50.14" y="31.24" width="0.88" height="11.82"/><rect class="cls-55" x="51.01" y="31.24" width="0.88" height="11.82"/><rect class="cls-53" x="51.89" y="31.24" width="0.88" height="11.82"/><rect class="cls-54" x="52.76" y="31.24" width="0.88" height="11.82"/><rect class="cls-56" x="53.64" y="31.24" width="0.88" height="11.82"/><rect class="cls-63" x="54.52" y="31.24" width="0.88" height="11.82"/><rect class="cls-61" x="55.39" y="31.24" width="0.88" height="11.82"/><rect class="cls-62" x="56.27" y="31.24" width="0.88" height="11.82"/><rect class="cls-64" x="57.14" y="31.24" width="0.29" height="11.82"/><rect class="cls-15" x="37.37" y="48.27" width="0.51" height="0.68"/><rect class="cls-16" x="37.87" y="48.27" width="0.18" height="0.68"/><rect class="cls-15" x="37.37" y="58.61" width="0.51" height="0.68"/><rect class="cls-16" x="37.87" y="58.61" width="0.18" height="0.68"/><rect class="cls-14" x="36.72" y="47.62" width="0.28" height="12.33"/><rect class="cls-15" x="37" y="47.62" width="0.88" height="12.33"/><rect class="cls-16" x="37.87" y="47.62" width="0.83" height="12.33"/><rect class="cls-17" x="39.46" y="55.83" width="0.16" height="0.68"/><rect class="cls-5" x="39.62" y="55.83" width="0.52" height="0.68"/><rect class="cls-26" x="46.78" y="39.26" width="0.01" height="0.01"/><rect class="cls-26" x="46.92" y="39.76" width="0.59" height="0.73"/><rect class="cls-27" x="47.51" y="39.76" width="0.18" height="0.73"/><rect class="cls-17" x="38.82" y="39.1" width="0.81" height="18.05"/><rect class="cls-5" x="39.62" y="39.1" width="0.88" height="18.05"/><rect class="cls-6" x="40.5" y="39.1" width="0.88" height="18.05"/><rect class="cls-18" x="41.38" y="39.1" width="0.88" height="18.05"/><rect class="cls-21" x="42.25" y="39.1" width="0.88" height="18.05"/><rect class="cls-22" x="43.13" y="39.1" width="0.88" height="18.05"/><rect class="cls-23" x="44" y="39.1" width="0.88" height="18.05"/><rect class="cls-24" x="44.88" y="39.1" width="0.88" height="18.05"/><rect class="cls-25" x="45.76" y="39.1" width="0.88" height="18.05"/><rect class="cls-26" x="46.63" y="39.1" width="0.88" height="18.05"/><rect class="cls-27" x="47.51" y="39.1" width="0.88" height="18.05"/><rect class="cls-19" x="48.38" y="39.1" width="0.04" height="18.05"/><rect class="cls-11" x="34.37" y="40.08" height="0.77"/><rect class="cls-12" x="34.37" y="40.08" width="0.77" height="0.77"/><rect class="cls-17" x="39.05" y="36.29" width="0.57" height="0.77"/><rect class="cls-5" x="39.62" y="36.29" width="0.2" height="0.77"/><rect class="cls-11" x="33.64" y="35.56" width="0.73" height="6.01"/><rect class="cls-12" x="34.37" y="35.56" width="0.88" height="6.01"/><rect class="cls-13" x="35.24" y="35.56" width="0.88" height="6.01"/><rect class="cls-14" x="36.12" y="35.56" width="0.88" height="6.01"/><rect class="cls-15" x="37" y="35.56" width="0.88" height="6.01"/><rect class="cls-16" x="37.87" y="35.56" width="0.88" height="6.01"/><rect class="cls-17" x="38.75" y="35.56" width="0.88" height="6.01"/><rect class="cls-5" x="39.62" y="35.56" width="0.88" height="6.01"/><rect class="cls-6" x="40.5" y="35.56" width="0.05" height="6.01"/><rect class="cls-12" x="34.4" y="43.56" width="0.68" height="0.68"/><rect class="cls-12" x="34.4" y="50.36" width="0.68" height="0.68"/><rect class="cls-11" x="33.75" y="42.92" width="0.62" height="8.78"/><rect class="cls-12" x="34.37" y="42.92" width="0.88" height="8.78"/><rect class="cls-13" x="35.24" y="42.92" width="0.48" height="8.78"/><rect class="cls-65" x="59.32" y="32.63" width="0.46" height="0.68"/><rect class="cls-66" x="59.77" y="32.63" width="0.23" height="0.68"/><rect class="cls-61" x="56.19" y="23.28" width="0.08" height="0.72"/><rect class="cls-62" x="56.27" y="23.28" width="0.67" height="0.72"/><rect class="cls-61" x="55.57" y="22.63" width="0.69" height="11.33"/><rect class="cls-62" x="56.27" y="22.63" width="0.88" height="11.33"/><rect class="cls-64" x="57.14" y="22.63" width="0.88" height="11.33"/><rect class="cls-67" x="58.02" y="22.63" width="0.88" height="11.33"/><rect class="cls-65" x="58.9" y="22.63" width="0.88" height="11.33"/><rect class="cls-66" x="59.77" y="22.63" width="0.88" height="11.33"/><rect class="cls-52" x="28.14" y="3.43" width="0.1" height="0.72"/><rect class="cls-7" x="28.24" y="3.43" width="0.62" height="0.72"/><rect class="cls-40" x="15.17" y="9.05" width="0.7" height="0.73"/><rect class="cls-37" x="14.46" y="2.7" width="0.64" height="7.67"/><rect class="cls-40" x="15.1" y="2.7" width="0.88" height="7.67"/><rect class="cls-41" x="15.97" y="2.7" width="0.88" height="7.67"/><rect class="cls-42" x="16.85" y="2.7" width="0.88" height="7.67"/><rect class="cls-43" x="17.73" y="2.7" width="0.88" height="7.67"/><rect class="cls-38" x="18.6" y="2.7" width="0.88" height="7.67"/><rect class="cls-39" x="19.48" y="2.7" width="0.88" height="7.67"/><rect class="cls-44" x="20.35" y="2.7" width="0.88" height="7.67"/><rect class="cls-47" x="21.23" y="2.7" width="0.88" height="7.67"/><rect class="cls-45" x="22.11" y="2.7" width="0.88" height="7.67"/><rect class="cls-46" x="22.98" y="2.7" width="0.88" height="7.67"/><rect class="cls-48" x="23.86" y="2.7" width="0.88" height="7.67"/><rect class="cls-49" x="24.73" y="2.7" width="0.88" height="7.67"/><rect class="cls-50" x="25.61" y="2.7" width="0.88" height="7.67"/><rect class="cls-51" x="26.49" y="2.7" width="0.88" height="7.67"/><rect class="cls-52" x="27.36" y="2.7" width="0.88" height="7.67"/><rect class="cls-7" x="28.24" y="2.7" width="0.88" height="7.67"/><rect class="cls-3" x="29.11" y="2.7" width="0.49" height="7.67"/><rect class="cls-26" x="47.13" y="45.32" width="0.38" height="0.69"/><rect class="cls-27" x="47.51" y="45.32" width="0.36" height="0.69"/><rect class="cls-22" x="43.45" y="58.33" width="0.55" height="0.68"/><rect class="cls-23" x="44" y="58.33" width="0.13" height="0.68"/><rect class="cls-21" x="42.8" y="44.56" width="0.32" height="15.1"/><rect class="cls-22" x="43.13" y="44.56" width="0.88" height="15.1"/><rect class="cls-23" x="44" y="44.56" width="0.88" height="15.1"/><rect class="cls-24" x="44.88" y="44.56" width="0.88" height="15.1"/><rect class="cls-25" x="45.76" y="44.56" width="0.88" height="15.1"/><rect class="cls-26" x="46.63" y="44.56" width="0.88" height="15.1"/><rect class="cls-27" x="47.51" y="44.56" width="0.88" height="15.1"/><rect class="cls-19" x="48.38" y="44.56" width="0.25" height="15.1"/><rect class="cls-33" x="7.4" y="25.48" width="0.69" height="0.75"/><rect class="cls-29" x="8.09" y="25.48" width="0.03" height="0.75"/><rect class="cls-34" x="10.51" y="28.62" width="0.21" height="0.72"/><rect class="cls-35" x="10.72" y="28.62" width="0.55" height="0.72"/><rect class="cls-57" x="6.79" y="24.77" width="0.43" height="5.28"/><rect class="cls-33" x="7.21" y="24.77" width="0.88" height="5.28"/><rect class="cls-29" x="8.09" y="24.77" width="0.88" height="5.28"/><rect class="cls-30" x="8.97" y="24.77" width="0.88" height="5.28"/><rect class="cls-34" x="9.84" y="24.77" width="0.88" height="5.28"/><rect class="cls-35" x="10.72" y="24.77" width="0.88" height="5.28"/><rect class="cls-36" x="11.59" y="24.77" width="0.38" height="5.28"/><rect class="cls-47" x="21.68" y="25.71" width="0.43" height="0.68"/><rect class="cls-45" x="22.11" y="25.71" width="0.26" height="0.68"/><rect class="cls-32" x="13.58" y="22.28" width="0.64" height="0.7"/><rect class="cls-37" x="14.22" y="22.28" width="0.13" height="0.7"/><rect class="cls-31" x="12.96" y="21.62" width="0.39" height="5.42"/><rect class="cls-32" x="13.35" y="21.62" width="0.88" height="5.42"/><rect class="cls-37" x="14.22" y="21.62" width="0.88" height="5.42"/><rect class="cls-40" x="15.1" y="21.62" width="0.88" height="5.42"/><rect class="cls-41" x="15.97" y="21.62" width="0.88" height="5.42"/><rect class="cls-42" x="16.85" y="21.62" width="0.88" height="5.42"/><rect class="cls-43" x="17.73" y="21.62" width="0.88" height="5.42"/><rect class="cls-38" x="18.6" y="21.62" width="0.88" height="5.42"/><rect class="cls-39" x="19.48" y="21.62" width="0.88" height="5.42"/><rect class="cls-44" x="20.35" y="21.62" width="0.88" height="5.42"/><rect class="cls-47" x="21.23" y="21.62" width="0.88" height="5.42"/><rect class="cls-45" x="22.11" y="21.62" width="0.88" height="5.42"/><rect class="cls-46" x="22.98" y="21.62" width="0.03" height="5.42"/><rect class="cls-44" x="21.02" y="29.83" width="0.21" height="0.7"/><rect class="cls-47" x="21.23" y="29.83" width="0.48" height="0.7"/><rect class="cls-58" x="4.01" y="25.22" width="0.58" height="0.72"/><rect class="cls-59" x="4.59" y="25.22" width="0.11" height="0.72"/><rect class="cls-68" x="3.28" y="24.56" width="0.43" height="7.19"/><rect class="cls-58" x="3.71" y="24.56" width="0.88" height="7.19"/><rect class="cls-59" x="4.59" y="24.56" width="0.88" height="7.19"/><rect class="cls-60" x="5.46" y="24.56" width="0.88" height="7.19"/><rect class="cls-57" x="6.34" y="24.56" width="0.88" height="7.19"/><rect class="cls-33" x="7.21" y="24.56" width="0.88" height="7.19"/><rect class="cls-29" x="8.09" y="24.56" width="0.88" height="7.19"/><rect class="cls-30" x="8.97" y="24.56" width="0.88" height="7.19"/><rect class="cls-34" x="9.84" y="24.56" width="0.88" height="7.19"/><rect class="cls-35" x="10.72" y="24.56" width="0.88" height="7.19"/><rect class="cls-36" x="11.59" y="24.56" width="0.88" height="7.19"/><rect class="cls-31" x="12.47" y="24.56" width="0.88" height="7.19"/><rect class="cls-32" x="13.35" y="24.56" width="0.88" height="7.19"/><rect class="cls-37" x="14.22" y="24.56" width="0.88" height="7.19"/><rect class="cls-40" x="15.1" y="24.56" width="0.88" height="7.19"/><rect class="cls-41" x="15.97" y="24.56" width="0.88" height="7.19"/><rect class="cls-42" x="16.85" y="24.56" width="0.88" height="7.19"/><rect class="cls-43" x="17.73" y="24.56" width="0.88" height="7.19"/><rect class="cls-38" x="18.6" y="24.56" width="0.88" height="7.19"/><rect class="cls-39" x="19.48" y="24.56" width="0.88" height="7.19"/><rect class="cls-44" x="20.35" y="24.56" width="0.88" height="7.19"/><rect class="cls-47" x="21.23" y="24.56" width="0.88" height="7.19"/><rect class="cls-45" x="22.11" y="24.56" width="0.26" height="7.19"/><rect class="cls-10" x="33.02" y="36.07" width="0.47" height="0.74"/><rect class="cls-11" x="33.49" y="36.07" width="0.26" height="0.74"/><rect class="cls-11" x="33.9" y="37.26" width="0.01" height="0.01"/><rect class="cls-16" x="38.62" y="41.74" width="0.13" height="0.69"/><rect class="cls-17" x="38.75" y="41.74" width="0.61" height="0.69"/><rect class="cls-9" x="32.26" y="34.07" width="0.36" height="9"/><rect class="cls-10" x="32.62" y="34.07" width="0.88" height="9"/><rect class="cls-11" x="33.49" y="34.07" width="0.88" height="9"/><rect class="cls-12" x="34.37" y="34.07" width="0.88" height="9"/><rect class="cls-13" x="35.24" y="34.07" width="0.88" height="9"/><rect class="cls-14" x="36.12" y="34.07" width="0.88" height="9"/><rect class="cls-15" x="37" y="34.07" width="0.88" height="9"/><rect class="cls-16" x="37.87" y="34.07" width="0.88" height="9"/><rect class="cls-17" x="38.75" y="34.07" width="0.88" height="9"/><rect class="cls-5" x="39.62" y="34.07" width="0.88" height="9"/><rect class="cls-6" x="40.5" y="34.07" width="0.88" height="9"/><rect class="cls-18" x="41.38" y="34.07" width="0.88" height="9"/><rect class="cls-21" x="42.25" y="34.07" width="0.88" height="9"/><rect class="cls-22" x="43.13" y="34.07" width="0.88" height="9"/><rect class="cls-23" x="44" y="34.07" width="0.88" height="9"/><rect class="cls-24" x="44.88" y="34.07" width="0.3" height="9"/><rect class="cls-69" x="0.85" y="22.29" width="0.23" height="0.68"/><rect class="cls-70" x="1.08" y="22.29" width="0.46" height="0.68"/><rect class="cls-37" x="14.51" y="28.71" width="0.59" height="0.75"/><rect class="cls-40" x="15.1" y="28.71" width="0.16" height="0.75"/><rect class="cls-69" x="0.21" y="21.64" width="0.88" height="8.43"/><rect class="cls-70" x="1.08" y="21.64" width="0.88" height="8.43"/><rect class="cls-71" x="1.96" y="21.64" width="0.88" height="8.43"/><rect class="cls-68" x="2.83" y="21.64" width="0.88" height="8.43"/><rect class="cls-58" x="3.71" y="21.64" width="0.88" height="8.43"/><rect class="cls-59" x="4.59" y="21.64" width="0.88" height="8.43"/><rect class="cls-60" x="5.46" y="21.64" width="0.88" height="8.43"/><rect class="cls-57" x="6.34" y="21.64" width="0.88" height="8.43"/><rect class="cls-33" x="7.21" y="21.64" width="0.88" height="8.43"/><rect class="cls-29" x="8.09" y="21.64" width="0.88" height="8.43"/><rect class="cls-30" x="8.97" y="21.64" width="0.88" height="8.43"/><rect class="cls-34" x="9.84" y="21.64" width="0.88" height="8.43"/><rect class="cls-35" x="10.72" y="21.64" width="0.88" height="8.43"/><rect class="cls-36" x="11.59" y="21.64" width="0.88" height="8.43"/><rect class="cls-31" x="12.47" y="21.64" width="0.88" height="8.43"/><rect class="cls-32" x="13.35" y="21.64" width="0.88" height="8.43"/><rect class="cls-37" x="14.22" y="21.64" width="0.88" height="8.43"/><rect class="cls-40" x="15.1" y="21.64" width="0.78" height="8.43"/><rect class="cls-4" x="30.34" y="39.76" width="0.52" height="0.68"/><rect class="cls-8" x="30.86" y="39.76" width="0.16" height="0.68"/><rect class="cls-14" x="36.66" y="31.54" width="0.34" height="0.74"/><rect class="cls-15" x="37" y="31.54" width="0.43" height="0.74"/><rect class="cls-3" x="29.69" y="30.91" width="0.3" height="10.19"/><rect class="cls-4" x="29.99" y="30.91" width="0.88" height="10.19"/><rect class="cls-8" x="30.86" y="30.91" width="0.88" height="10.19"/><rect class="cls-9" x="31.74" y="30.91" width="0.88" height="10.19"/><rect class="cls-10" x="32.62" y="30.91" width="0.88" height="10.19"/><rect class="cls-11" x="33.49" y="30.91" width="0.88" height="10.19"/><rect class="cls-12" x="34.37" y="30.91" width="0.88" height="10.19"/><rect class="cls-13" x="35.24" y="30.91" width="0.88" height="10.19"/><rect class="cls-14" x="36.12" y="30.91" width="0.88" height="10.19"/><rect class="cls-15" x="37" y="30.91" width="0.88" height="10.19"/><rect class="cls-16" x="37.87" y="30.91" width="0.19" height="10.19"/><rect class="cls-3" x="29.96" y="29.84" width="0.03" height="0.68"/><rect class="cls-4" x="29.99" y="29.84" width="0.66" height="0.68"/><rect class="cls-48" x="23.94" y="29.84" width="0.68" height="0.68"/><rect class="cls-46" x="23.29" y="29.19" width="0.57" height="1.98"/><rect class="cls-48" x="23.86" y="29.19" width="0.88" height="1.98"/><rect class="cls-49" x="24.73" y="29.19" width="0.88" height="1.98"/><rect class="cls-50" x="25.61" y="29.19" width="0.88" height="1.98"/><rect class="cls-51" x="26.49" y="29.19" width="0.88" height="1.98"/><rect class="cls-52" x="27.36" y="29.19" width="0.88" height="1.98"/><rect class="cls-7" x="28.24" y="29.19" width="0.88" height="1.98"/><rect class="cls-3" x="29.11" y="29.19" width="0.88" height="1.98"/><rect class="cls-4" x="29.99" y="29.19" width="0.88" height="1.98"/><rect class="cls-8" x="30.86" y="29.19" width="0.43" height="1.98"/><rect class="cls-4" x="30.34" y="44.46" width="0.52" height="0.68"/><rect class="cls-8" x="30.86" y="44.46" width="0.16" height="0.68"/><rect class="cls-4" x="30.34" y="54.31" width="0.52" height="0.68"/><rect class="cls-8" x="30.86" y="54.31" width="0.16" height="0.68"/><rect class="cls-3" x="29.69" y="43.81" width="0.3" height="11.83"/><rect class="cls-4" x="29.99" y="43.81" width="0.88" height="11.83"/><rect class="cls-8" x="30.86" y="43.81" width="0.81" height="11.83"/><rect class="cls-12" x="34.73" y="23.78" width="0.52" height="0.68"/><rect class="cls-13" x="35.24" y="23.78" width="0.17" height="0.68"/><rect class="cls-44" x="20.98" y="11.5" width="0.25" height="0.73"/><rect class="cls-47" x="21.23" y="11.5" width="0.49" height="0.73"/><rect class="cls-42" x="16.98" y="10.74" width="0.74" height="14.37"/><rect class="cls-43" x="17.73" y="10.74" width="0.88" height="14.37"/><rect class="cls-38" x="18.6" y="10.74" width="0.88" height="14.37"/><rect class="cls-39" x="19.48" y="10.74" width="0.88" height="14.37"/><rect class="cls-44" x="20.35" y="10.74" width="0.88" height="14.37"/><rect class="cls-47" x="21.23" y="10.74" width="0.88" height="14.37"/><rect class="cls-45" x="22.11" y="10.74" width="0.88" height="14.37"/><rect class="cls-46" x="22.98" y="10.74" width="0.88" height="14.37"/><rect class="cls-48" x="23.86" y="10.74" width="0.88" height="14.37"/><rect class="cls-49" x="24.73" y="10.74" width="0.88" height="14.37"/><rect class="cls-50" x="25.61" y="10.74" width="0.88" height="14.37"/><rect class="cls-51" x="26.49" y="10.74" width="0.88" height="14.37"/><rect class="cls-52" x="27.36" y="10.74" width="0.88" height="14.37"/><rect class="cls-7" x="28.24" y="10.74" width="0.88" height="14.37"/><rect class="cls-3" x="29.11" y="10.74" width="0.88" height="14.37"/><rect class="cls-4" x="29.99" y="10.74" width="0.88" height="14.37"/><rect class="cls-8" x="30.86" y="10.74" width="0.88" height="14.37"/><rect class="cls-9" x="31.74" y="10.74" width="0.88" height="14.37"/><rect class="cls-10" x="32.62" y="10.74" width="0.88" height="14.37"/><rect class="cls-11" x="33.49" y="10.74" width="0.88" height="14.37"/><rect class="cls-12" x="34.37" y="10.74" width="0.88" height="14.37"/><rect class="cls-13" x="35.24" y="10.74" width="0.82" height="14.37"/><rect class="cls-37" x="14.5" y="13.22" width="0.6" height="0.74"/><rect class="cls-40" x="15.1" y="13.22" width="0.18" height="0.74"/><rect class="cls-9" x="31.92" y="8.96" width="0.68" height="0.68"/><rect class="cls-32" x="13.87" y="8.31" width="0.35" height="6.28"/><rect class="cls-37" x="14.22" y="8.31" width="0.88" height="6.28"/><rect class="cls-40" x="15.1" y="8.31" width="0.88" height="6.28"/><rect class="cls-41" x="15.97" y="8.31" width="0.88" height="6.28"/><rect class="cls-42" x="16.85" y="8.31" width="0.88" height="6.28"/><rect class="cls-43" x="17.73" y="8.31" width="0.88" height="6.28"/><rect class="cls-38" x="18.6" y="8.31" width="0.88" height="6.28"/><rect class="cls-39" x="19.48" y="8.31" width="0.88" height="6.28"/><rect class="cls-44" x="20.35" y="8.31" width="0.88" height="6.28"/><rect class="cls-47" x="21.23" y="8.31" width="0.88" height="6.28"/><rect class="cls-45" x="22.11" y="8.31" width="0.88" height="6.28"/><rect class="cls-46" x="22.98" y="8.31" width="0.88" height="6.28"/><rect class="cls-48" x="23.86" y="8.31" width="0.88" height="6.28"/><rect class="cls-49" x="24.73" y="8.31" width="0.88" height="6.28"/><rect class="cls-50" x="25.61" y="8.31" width="0.88" height="6.28"/><rect class="cls-51" x="26.49" y="8.31" width="0.88" height="6.28"/><rect class="cls-52" x="27.36" y="8.31" width="0.88" height="6.28"/><rect class="cls-7" x="28.24" y="8.31" width="0.88" height="6.28"/><rect class="cls-3" x="29.11" y="8.31" width="0.88" height="6.28"/><rect class="cls-4" x="29.99" y="8.31" width="0.88" height="6.28"/><rect class="cls-8" x="30.86" y="8.31" width="0.88" height="6.28"/><rect class="cls-9" x="31.74" y="8.31" width="0.88" height="6.28"/><rect class="cls-10" x="32.62" y="8.31" width="0.64" height="6.28"/><rect class="cls-54" x="52.82" y="25.22" width="0.68" height="0.68"/><rect class="cls-23" x="44.22" y="30.32" width="0.66" height="0.69"/><rect class="cls-24" x="44.88" y="30.32" width="0.07" height="0.69"/><rect class="cls-18" x="41.55" y="24.58" width="0.7" height="7.08"/><rect class="cls-21" x="42.25" y="24.58" width="0.88" height="7.08"/><rect class="cls-22" x="43.13" y="24.58" width="0.88" height="7.08"/><rect class="cls-23" x="44" y="24.58" width="0.88" height="7.08"/><rect class="cls-24" x="44.88" y="24.58" width="0.88" height="7.08"/><rect class="cls-25" x="45.76" y="24.58" width="0.88" height="7.08"/><rect class="cls-26" x="46.63" y="24.58" width="0.88" height="7.08"/><rect class="cls-27" x="47.51" y="24.58" width="0.88" height="7.08"/><rect class="cls-19" x="48.38" y="24.58" width="0.88" height="7.08"/><rect class="cls-20" x="49.26" y="24.58" width="0.88" height="7.08"/><rect class="cls-28" x="50.14" y="24.58" width="0.88" height="7.08"/><rect class="cls-55" x="51.01" y="24.58" width="0.88" height="7.08"/><rect class="cls-53" x="51.89" y="24.58" width="0.88" height="7.08"/><rect class="cls-54" x="52.76" y="24.58" width="0.88" height="7.08"/><rect class="cls-56" x="53.64" y="24.58" width="0.51" height="7.08"/><rect class="cls-19" x="48.91" y="27.64" width="0.35" height="0.66"/><rect class="cls-20" x="49.26" y="27.64" width="0.34" height="0.66"/><rect class="cls-19" x="48.91" y="37.02" width="0.35" height="0.68"/><rect class="cls-20" x="49.26" y="37.02" width="0.34" height="0.68"/><rect class="cls-27" x="48.27" y="26.99" width="0.12" height="11.36"/><rect class="cls-19" x="48.38" y="26.99" width="0.88" height="11.36"/><rect class="cls-20" x="49.26" y="26.99" width="0.88" height="11.36"/><rect class="cls-28" x="50.14" y="26.99" width="0.11" height="11.36"/><rect class="cls-55" x="51.24" y="9.68" width="0.65" height="0.68"/><rect class="cls-53" x="51.89" y="9.68" width="0.04" height="0.68"/><rect class="cls-28" x="50.36" y="16.42" width="0.65" height="0.78"/><rect class="cls-55" x="51.01" y="16.42" width="0.08" height="0.78"/><rect class="cls-20" x="49.73" y="9.04" width="0.41" height="11.73"/><rect class="cls-28" x="50.14" y="9.04" width="0.88" height="11.73"/><rect class="cls-55" x="51.01" y="9.04" width="0.88" height="11.73"/><rect class="cls-53" x="51.89" y="9.04" width="0.88" height="11.73"/><rect class="cls-54" x="52.76" y="9.04" width="0.88" height="11.73"/><rect class="cls-56" x="53.64" y="9.04" width="0.88" height="11.73"/><rect class="cls-63" x="54.52" y="9.04" width="0.88" height="11.73"/><rect class="cls-61" x="55.39" y="9.04" width="0.88" height="11.73"/><rect class="cls-62" x="56.27" y="9.04" width="0.88" height="11.73"/><rect class="cls-64" x="57.14" y="9.04" width="0.88" height="11.73"/><rect class="cls-67" x="58.02" y="9.04" width="0.35" height="11.73"/><rect class="cls-54" x="52.82" y="30.2" width="0.68" height="0.66"/><rect class="cls-54" x="52.82" y="37" width="0.68" height="0.68"/><rect class="cls-53" x="52.17" y="29.55" width="0.59" height="8.78"/><rect class="cls-54" x="52.76" y="29.55" width="0.88" height="8.78"/><rect class="cls-56" x="53.64" y="29.55" width="0.51" height="8.78"/><rect class="cls-28" x="50.24" y="22.29" width="0.68" height="0.68"/><rect class="cls-21" x="42.83" y="33.12" width="0.3" height="0.72"/><rect class="cls-22" x="43.13" y="33.12" width="0.39" height="0.72"/><rect class="cls-16" x="38.2" y="21.64" width="0.55" height="12.81"/><rect class="cls-17" x="38.75" y="21.64" width="0.88" height="12.81"/><rect class="cls-5" x="39.62" y="21.64" width="0.88" height="12.81"/><rect class="cls-6" x="40.5" y="21.64" width="0.88" height="12.81"/><rect class="cls-18" x="41.38" y="21.64" width="0.88" height="12.81"/><rect class="cls-21" x="42.25" y="21.64" width="0.88" height="12.81"/><rect class="cls-22" x="43.13" y="21.64" width="0.88" height="12.81"/><rect class="cls-23" x="44" y="21.64" width="0.88" height="12.81"/><rect class="cls-24" x="44.88" y="21.64" width="0.88" height="12.81"/><rect class="cls-25" x="45.76" y="21.64" width="0.88" height="12.81"/><rect class="cls-26" x="46.63" y="21.64" width="0.88" height="12.81"/><rect class="cls-27" x="47.51" y="21.64" width="0.88" height="12.81"/><rect class="cls-19" x="48.38" y="21.64" width="0.88" height="12.81"/><rect class="cls-20" x="49.26" y="21.64" width="0.88" height="12.81"/><rect class="cls-28" x="50.14" y="21.64" width="0.88" height="12.81"/><rect class="cls-55" x="51.01" y="21.64" width="0.56" height="12.81"/><rect class="cls-10" x="32.97" y="26.26" width="0.52" height="0.68"/><rect class="cls-11" x="33.49" y="26.26" width="0.16" height="0.68"/><rect class="cls-51" x="26.95" y="26.26" width="0.41" height="0.68"/><rect class="cls-52" x="27.36" y="26.26" width="0.27" height="0.68"/><rect class="cls-50" x="26.3" y="25.61" width="0.18" height="1.98"/><rect class="cls-51" x="26.49" y="25.61" width="0.88" height="1.98"/><rect class="cls-52" x="27.36" y="25.61" width="0.88" height="1.98"/><rect class="cls-7" x="28.24" y="25.61" width="0.88" height="1.98"/><rect class="cls-3" x="29.11" y="25.61" width="0.88" height="1.98"/><rect class="cls-4" x="29.99" y="25.61" width="0.88" height="1.98"/><rect class="cls-8" x="30.86" y="25.61" width="0.88" height="1.98"/><rect class="cls-9" x="31.74" y="25.61" width="0.88" height="1.98"/><rect class="cls-10" x="32.62" y="25.61" width="0.88" height="1.98"/><rect class="cls-11" x="33.49" y="25.61" width="0.81" height="1.98"/><rect class="cls-36" x="12.06" y="7.86" width="0.41" height="0.72"/><rect class="cls-31" x="12.47" y="7.86" width="0.31" height="0.72"/><rect class="cls-40" x="15.15" y="4.83" width="0.72" height="0.68"/><rect class="cls-35" x="11.31" y="4.18" width="0.28" height="5.01"/><rect class="cls-36" x="11.59" y="4.18" width="0.88" height="5.01"/><rect class="cls-31" x="12.47" y="4.18" width="0.88" height="5.01"/><rect class="cls-32" x="13.35" y="4.18" width="0.88" height="5.01"/><rect class="cls-37" x="14.22" y="4.18" width="0.88" height="5.01"/><rect class="cls-40" x="15.1" y="4.18" width="0.88" height="5.01"/><rect class="cls-41" x="15.97" y="4.18" width="0.54" height="5.01"/></g></svg>